<?xml version="1.0" encoding="utf-8"?>
<!-- Generator: Adobe Illustrator 17.0.0, SVG Export Plug-In . SVG Version: 6.00 Build 0)  -->
<!DOCTYPE svg PUBLIC "-//W3C//DTD SVG 1.1//EN" "http://www.w3.org/Graphics/SVG/1.1/DTD/svg11.dtd">
<svg version="1.1" id="Layer_1" xmlns="http://www.w3.org/2000/svg" xmlns:xlink="http://www.w3.org/1999/xlink" x="0px" y="0px"
	 width="566.93px" height="566.93px" viewBox="0 0 566.93 566.93" enable-background="new 0 0 566.93 566.93" xml:space="preserve">
<path fill="none" stroke="#2E3192" stroke-width="10" stroke-miterlimit="10" d="M566.93,554.93c0,6.627-5.373,12-12,12H12
	c-6.627,0-12-5.373-12-12V12C0,5.373,5.373,0,12,0h542.93c6.627,0,12,5.373,12,12V554.93z"/>
<path fill="#2E3192" d="M552.757,541.357c0,6.296-5.104,11.4-11.4,11.4H25.573c-6.296,0-11.4-5.104-11.4-11.4V25.573
	c0-6.296,5.104-11.4,11.4-11.4h515.784c6.296,0,11.4,5.104,11.4,11.4V541.357z"/>
<text transform="matrix(1 0 0 1 89 178)" fill="#FFFFFF" font-family="'TimesNewRomanPS-BoldMT'" font-size="150">R</text>
<text transform="matrix(1 0 0 1 371.997 461.9958)" fill="#FFFFFF" font-family="'TimesNewRomanPS-BoldMT'" font-size="150">Y</text>
<text transform="matrix(1 0 0 1 228 321)" fill="#FFFFFF" font-family="'TimesNewRomanPS-BoldMT'" font-size="150">N</text>
</svg>
